<svg width="572" height="64" viewBox="0 0 572 64" fill="none" xmlns="http://www.w3.org/2000/svg">
<g clip-path="url(#clip0_2389_2206)">
<path fill-rule="evenodd" clip-rule="evenodd" d="M47.3582 51.9973C43.894 48.3159 40.8809 48.9172 38.199 48.9474C30.1267 53.9813 17.8783 49.7089 16.7027 38.5619C15.8443 26.4058 30.733 23.9789 31.8087 8C34.0947 19.1138 24.9392 27.0857 22.931 34.542C20.8528 42.2485 26.8566 45.6417 31.9835 44.7791C34.3706 44.3772 36.5681 43.0524 37.6706 40.8112C38.624 38.8738 38.7595 36.2513 37.4931 32.9471C35.6291 28.0823 31.7966 22.8768 33.3809 15.9007C34.3479 25.7724 48.1602 29.7115 43.7218 42.3379C43.3769 43.1556 42.962 43.9436 42.4815 44.6935C45.0419 45.6901 47.5532 46.8343 47.3582 51.9973Z" fill="#2C2C2C"/>
<path d="M22.0362 51.665C22.0362 52.0603 23.245 52.4158 25.1586 52.6586C22.5872 52.3884 20.9158 51.9507 20.9158 51.4579C20.9158 50.991 22.4158 50.5721 24.7593 50.3C24.9633 50.4196 25.173 50.5344 25.3872 50.6422C23.3404 50.8851 22.0365 51.2531 22.0365 51.665H22.0362Z" fill="#FFB600"/>
<path d="M41.553 51.4569C41.553 51.9493 39.8797 52.3874 37.3098 52.6576C39.2238 52.4148 40.4327 52.0593 40.4327 51.664C40.4327 51.1886 38.7007 50.773 36.0968 50.5386C36.2947 50.4279 36.4881 50.3146 36.68 50.1931C39.6049 50.4563 41.5526 50.9236 41.5526 51.4569H41.553Z" fill="#FFB600"/>
<path d="M38.5959 51.6381C38.5959 52.2231 35.2997 52.6985 31.2344 52.6985C27.1692 52.6985 23.873 52.2231 23.873 51.6381C23.873 51.3509 24.6621 51.0907 25.944 50.8998C26.033 50.8862 26.1238 50.8725 26.2165 50.8604C26.1317 50.8773 26.051 50.895 25.9743 50.9135C25.4088 51.0471 25.0822 51.2044 25.0822 51.3738C25.0822 51.8628 27.8372 52.2596 31.2344 52.2596C34.6317 52.2596 37.387 51.8628 37.387 51.3738C37.387 51.1822 36.965 51.0047 36.2516 50.8604C37.6929 51.0538 38.5952 51.3291 38.5952 51.6355L38.5959 51.6381Z" fill="#FFB600"/>
<path fill-rule="evenodd" clip-rule="evenodd" d="M31.5682 20.0225C30.7287 24.6045 24.402 31.1558 24.402 37.1246C24.402 43.8822 33.3024 46.0569 36.3677 39.0284C38.3775 34.4209 31.4974 26.6878 31.5682 20.0228V20.0225Z" fill="#FFB600"/>
<path d="M34.4996 39.2437C34.338 39.2618 34.1809 39.1998 34.137 38.9975C34.0992 38.8214 34.2627 38.5837 34.394 38.3929C35.5639 36.6994 35.1101 34.6214 34.4671 32.8264C34.0106 31.5512 33.575 30.1124 33.2018 29.011C33.916 30.789 34.7774 32.4068 35.3591 34.2124C35.8076 35.6021 35.8587 37.1106 35.2078 38.4512C35.0617 38.7524 34.9129 39.1976 34.4985 39.2441L34.4996 39.2437Z" fill="white"/>
<path d="M33.6677 40.6897C33.4376 40.9256 33.1329 41.0057 32.9864 40.8695C32.8399 40.7333 32.9065 40.4321 33.1378 40.1981C33.369 39.9641 33.6726 39.8825 33.8191 40.0187C33.9655 40.1549 33.8989 40.4553 33.6677 40.6901V40.6897Z" fill="white"/>
</g>
<path d="M74.2088 48.4704C72.092 48.4704 70.1189 48.0915 68.2896 47.3336C66.4864 46.5757 64.8923 45.5173 63.5072 44.1584C62.1483 42.7995 61.0768 41.2053 60.2928 39.376C59.5349 37.5467 59.156 35.5475 59.156 33.3784C59.156 31.2093 59.5349 29.2101 60.2928 27.3808C61.0768 25.5253 62.1483 23.9312 63.5072 22.5984C64.8661 21.2395 66.4603 20.1941 68.2896 19.4624C70.1189 18.7045 72.092 18.3256 74.2088 18.3256C76.3517 18.3256 78.3248 18.7045 80.128 19.4624C81.9573 20.1941 83.5515 21.2395 84.9104 22.5984C86.2955 23.9573 87.3669 25.5515 88.1248 27.3808C88.8827 29.2101 89.2616 31.2093 89.2616 33.3784C89.2616 35.5475 88.8696 37.5467 88.0856 39.376C87.3277 41.2053 86.2693 42.7995 84.9104 44.1584C83.5515 45.5173 81.9573 46.5757 80.128 47.3336C78.2987 48.0915 76.3256 48.4704 74.2088 48.4704ZM74.2088 44.2368C75.7245 44.2368 77.1096 43.9624 78.364 43.4136C79.6445 42.8648 80.7552 42.1069 81.696 41.14C82.6368 40.1469 83.3685 38.9971 83.8912 37.6904C84.4139 36.3576 84.6752 34.9203 84.6752 33.3784C84.6752 31.8365 84.4139 30.4123 83.8912 29.1056C83.3685 27.7989 82.6368 26.6491 81.696 25.656C80.7552 24.6629 79.6445 23.892 78.364 23.3432C77.1096 22.7944 75.7245 22.52 74.2088 22.52C72.6931 22.52 71.2949 22.7944 70.0144 23.3432C68.76 23.892 67.6624 24.6629 66.7216 25.656C65.7808 26.6491 65.0491 27.7989 64.5264 29.1056C64.0299 30.4123 63.7816 31.8365 63.7816 33.3784C63.7816 34.9203 64.0299 36.3576 64.5264 37.6904C65.0491 38.9971 65.7808 40.1469 66.7216 41.14C67.6624 42.1069 68.7731 42.8648 70.0536 43.4136C71.3341 43.9624 72.7192 44.2368 74.2088 44.2368ZM81.5392 51.528L71.9744 36.3184H76.9136L86.5176 51.528H81.5392ZM100.784 48.4704C99.1895 48.4704 97.7914 48.1176 96.5892 47.412C95.3871 46.6803 94.4463 45.6741 93.7668 44.3936C93.1135 43.0869 92.7868 41.5843 92.7868 39.8856V26.7928H97.2164V39.4936C97.2164 40.4605 97.4124 41.3099 97.8044 42.0416C98.1964 42.7733 98.7452 43.3483 99.4508 43.7664C100.156 44.1584 100.967 44.3544 101.881 44.3544C102.822 44.3544 103.645 44.1453 104.351 43.7272C105.056 43.3091 105.605 42.7211 105.997 41.9632C106.415 41.2053 106.624 40.3168 106.624 39.2976V26.7928H111.015V48H106.82V43.8448L107.291 44.3936C106.794 45.7003 105.971 46.7064 104.821 47.412C103.671 48.1176 102.326 48.4704 100.784 48.4704ZM115.403 48V26.7928H119.832V48H115.403ZM115.403 23.892V18.796H119.832V23.892H115.403ZM134.302 48.4704C132.185 48.4704 130.303 47.9869 128.657 47.02C127.037 46.0269 125.743 44.6941 124.776 43.0216C123.835 41.3491 123.365 39.4544 123.365 37.3376C123.365 35.2469 123.835 33.3653 124.776 31.6928C125.717 30.0203 127.011 28.7136 128.657 27.7728C130.303 26.8059 132.185 26.3224 134.302 26.3224C135.739 26.3224 137.085 26.5837 138.339 27.1064C139.594 27.6029 140.678 28.2955 141.593 29.184C142.534 30.0725 143.226 31.1048 143.671 32.2808L139.79 34.084C139.346 32.9864 138.627 32.1109 137.634 31.4576C136.667 30.7781 135.556 30.4384 134.302 30.4384C133.1 30.4384 132.015 30.7389 131.048 31.34C130.107 31.9149 129.363 32.7381 128.814 33.8096C128.265 34.8549 127.991 36.044 127.991 37.3768C127.991 38.7096 128.265 39.9117 128.814 40.9832C129.363 42.0285 130.107 42.8517 131.048 43.4528C132.015 44.0539 133.1 44.3544 134.302 44.3544C135.582 44.3544 136.693 44.0277 137.634 43.3744C138.601 42.6949 139.319 41.7933 139.79 40.6696L143.671 42.512C143.252 43.6357 142.573 44.6549 141.632 45.5696C140.718 46.4581 139.633 47.1637 138.379 47.6864C137.124 48.2091 135.765 48.4704 134.302 48.4704ZM147.216 48V26.7928H151.45V31.0656L151.058 30.4384C151.528 29.0533 152.286 28.0603 153.331 27.4592C154.377 26.832 155.631 26.5184 157.094 26.5184H158.388V30.556H156.546C155.082 30.556 153.893 31.0133 152.978 31.928C152.09 32.8165 151.646 34.0971 151.646 35.7696V48H147.216ZM170.591 48.4704C168.474 48.4704 166.593 47.9869 164.946 47.02C163.326 46.0269 162.059 44.6941 161.144 43.0216C160.229 41.3229 159.772 39.4283 159.772 37.3376C159.772 35.1947 160.229 33.3 161.144 31.6536C162.085 30.0072 163.339 28.7136 164.907 27.7728C166.475 26.8059 168.252 26.3224 170.238 26.3224C171.833 26.3224 173.257 26.5968 174.511 27.1456C175.766 27.6944 176.824 28.4523 177.686 29.4192C178.549 30.36 179.202 31.4445 179.646 32.6728C180.117 33.9011 180.352 35.2077 180.352 36.5928C180.352 36.9325 180.339 37.2853 180.313 37.6512C180.287 38.0171 180.234 38.3568 180.156 38.6704H163.261V35.1424H177.647L175.53 36.7496C175.792 35.4691 175.7 34.3323 175.256 33.3392C174.838 32.32 174.185 31.5229 173.296 30.948C172.434 30.3469 171.414 30.0464 170.238 30.0464C169.062 30.0464 168.017 30.3469 167.102 30.948C166.188 31.5229 165.482 32.3592 164.986 33.4568C164.489 34.5283 164.293 35.8349 164.398 37.3768C164.267 38.8141 164.463 40.0685 164.986 41.14C165.534 42.2115 166.292 43.0477 167.259 43.6488C168.252 44.2499 169.376 44.5504 170.63 44.5504C171.911 44.5504 172.995 44.2629 173.884 43.688C174.799 43.1131 175.517 42.3683 176.04 41.4536L179.646 43.2176C179.228 44.2107 178.575 45.1123 177.686 45.9224C176.824 46.7064 175.779 47.3336 174.55 47.804C173.348 48.2483 172.029 48.4704 170.591 48.4704ZM186.282 48V30.7912H182.362V26.7928H186.282V25.6952C186.282 24.1011 186.609 22.7683 187.262 21.6968C187.916 20.5992 188.817 19.7629 189.967 19.188C191.143 18.6131 192.489 18.3256 194.005 18.3256C194.292 18.3256 194.619 18.3517 194.985 18.404C195.35 18.4301 195.651 18.4693 195.886 18.5216V22.3632C195.677 22.3109 195.442 22.2848 195.181 22.2848C194.919 22.2587 194.71 22.2456 194.553 22.2456C193.377 22.2456 192.437 22.52 191.731 23.0688C191.025 23.5915 190.673 24.4669 190.673 25.6952V26.7928H200.825V30.7912H190.673V48H186.282ZM198.748 48V26.7928H203.138V48H198.748ZM207.033 48V18.3256H211.462V48H207.033ZM215.857 48V18.3256H220.287V48H215.857ZM229.378 48L239.649 18.796H245.372L255.642 48H250.703L248.469 41.4536H236.591L234.318 48H229.378ZM237.924 37.3376H247.058L241.883 22.0496H243.177L237.924 37.3376ZM267.318 48.4704C265.28 48.4704 263.45 47.9869 261.83 47.02C260.236 46.0269 258.969 44.6941 258.028 43.0216C257.113 41.3491 256.656 39.4675 256.656 37.3768C256.656 35.2861 257.126 33.4045 258.067 31.732C259.008 30.0595 260.275 28.7397 261.869 27.7728C263.463 26.8059 265.267 26.3224 267.279 26.3224C268.978 26.3224 270.48 26.6621 271.787 27.3416C273.094 28.0211 274.126 28.9619 274.884 30.164L274.217 31.1832V18.3256H278.608V48H274.413V43.688L274.923 44.5112C274.191 45.7917 273.146 46.7717 271.787 47.4512C270.428 48.1307 268.938 48.4704 267.318 48.4704ZM267.749 44.3544C268.978 44.3544 270.075 44.0539 271.042 43.4528C272.035 42.8517 272.806 42.0285 273.355 40.9832C273.93 39.9117 274.217 38.7096 274.217 37.3768C274.217 36.044 273.93 34.8549 273.355 33.8096C272.806 32.7643 272.035 31.9411 271.042 31.34C270.075 30.7389 268.978 30.4384 267.749 30.4384C266.521 30.4384 265.41 30.7389 264.417 31.34C263.424 31.9411 262.653 32.7643 262.105 33.8096C261.556 34.8549 261.281 36.044 261.281 37.3768C261.281 38.7096 261.556 39.9117 262.105 40.9832C262.653 42.0285 263.411 42.8517 264.378 43.4528C265.371 44.0539 266.495 44.3544 267.749 44.3544ZM283.387 48V26.7928H287.621V31.3792L287.072 30.6736C287.516 29.2363 288.326 28.1517 289.502 27.42C290.678 26.6883 292.024 26.3224 293.54 26.3224C295.239 26.3224 296.741 26.7797 298.048 27.6944C299.381 28.5829 300.269 29.772 300.713 31.2616L299.459 31.3792C300.086 29.6805 301.04 28.4131 302.321 27.5768C303.627 26.7405 305.117 26.3224 306.789 26.3224C308.253 26.3224 309.573 26.6621 310.749 27.3416C311.951 28.0211 312.905 28.9619 313.61 30.164C314.316 31.3661 314.669 32.7381 314.669 34.28V48H310.239V35.4952C310.239 34.4237 310.043 33.5221 309.651 32.7904C309.285 32.0325 308.763 31.4576 308.083 31.0656C307.43 30.6475 306.659 30.4384 305.77 30.4384C304.882 30.4384 304.098 30.6475 303.418 31.0656C302.739 31.4576 302.203 32.0325 301.811 32.7904C301.419 33.5483 301.223 34.4499 301.223 35.4952V48H296.833V35.4952C296.833 34.4237 296.637 33.5221 296.245 32.7904C295.879 32.0325 295.356 31.4576 294.677 31.0656C294.023 30.6475 293.239 30.4384 292.325 30.4384C291.436 30.4384 290.652 30.6475 289.973 31.0656C289.293 31.4576 288.757 32.0325 288.365 32.7904C288 33.5483 287.817 34.4499 287.817 35.4952V48H283.387ZM319.018 48V26.7928H323.447V48H319.018ZM319.018 23.892V18.796H323.447V23.892H319.018ZM328.234 48V26.7928H332.468V30.948L331.958 30.3992C332.481 29.0664 333.317 28.0603 334.467 27.3808C335.617 26.6752 336.95 26.3224 338.465 26.3224C340.033 26.3224 341.419 26.6621 342.621 27.3416C343.823 28.0211 344.764 28.9619 345.443 30.164C346.123 31.3661 346.462 32.7512 346.462 34.3192V48H342.072V35.4952C342.072 34.4237 341.876 33.5221 341.484 32.7904C341.092 32.0325 340.53 31.4576 339.798 31.0656C339.093 30.6475 338.283 30.4384 337.368 30.4384C336.453 30.4384 335.63 30.6475 334.898 31.0656C334.193 31.4576 333.644 32.0325 333.252 32.7904C332.86 33.5483 332.664 34.4499 332.664 35.4952V48H328.234ZM358.134 48V18.796H367.738C370.639 18.796 373.16 19.3971 375.303 20.5992C377.446 21.7752 379.106 23.4608 380.282 25.656C381.458 27.8251 382.046 30.3992 382.046 33.3784C382.046 36.3315 381.458 38.9056 380.282 41.1008C379.106 43.296 377.446 44.9947 375.303 46.1968C373.16 47.3989 370.639 48 367.738 48H358.134ZM361.27 45.06H367.738C369.985 45.06 371.932 44.5896 373.579 43.6488C375.225 42.6819 376.492 41.3229 377.381 39.572C378.296 37.8211 378.753 35.7565 378.753 33.3784C378.753 31.0003 378.296 28.9488 377.381 27.224C376.466 25.4731 375.186 24.1272 373.539 23.1864C371.893 22.2195 369.959 21.736 367.738 21.736H361.27V45.06ZM392.098 48.4704C390.765 48.4704 389.576 48.2221 388.53 47.7256C387.485 47.2029 386.662 46.4973 386.061 45.6088C385.46 44.7203 385.159 43.7011 385.159 42.5512C385.159 41.4536 385.394 40.4605 385.865 39.572C386.335 38.6573 387.067 37.8864 388.06 37.2592C389.053 36.632 390.32 36.1877 391.862 35.9264L400.094 34.5544V37.22L392.568 38.4744C391.052 38.7357 389.955 39.2192 389.275 39.9248C388.622 40.6304 388.295 41.4667 388.295 42.4336C388.295 43.3744 388.661 44.1715 389.393 44.8248C390.151 45.4781 391.118 45.8048 392.294 45.8048C393.731 45.8048 394.985 45.5043 396.057 44.9032C397.128 44.276 397.964 43.4397 398.566 42.3944C399.167 41.3491 399.467 40.1861 399.467 38.9056V33.5744C399.467 32.32 399.01 31.3008 398.095 30.5168C397.18 29.7328 395.991 29.3408 394.528 29.3408C393.247 29.3408 392.124 29.6675 391.157 30.3208C390.19 30.948 389.471 31.7712 389.001 32.7904L386.335 31.34C386.727 30.4515 387.341 29.6413 388.178 28.9096C389.04 28.1779 390.02 27.6029 391.118 27.1848C392.215 26.7405 393.352 26.5184 394.528 26.5184C396.07 26.5184 397.429 26.8189 398.605 27.42C399.807 28.0211 400.735 28.8573 401.388 29.9288C402.067 30.9741 402.407 32.1893 402.407 33.5744V48H399.467V43.8056L399.898 44.2368C399.532 45.0208 398.958 45.7395 398.174 46.3928C397.416 47.02 396.514 47.5296 395.469 47.9216C394.45 48.2875 393.326 48.4704 392.098 48.4704ZM415.354 48.4704C413.341 48.4704 411.577 47.9608 410.062 46.9416C408.546 45.9224 407.448 44.5373 406.769 42.7864L409.238 41.6104C409.839 42.8909 410.676 43.9101 411.747 44.668C412.845 45.4259 414.047 45.8048 415.354 45.8048C416.608 45.8048 417.666 45.5043 418.529 44.9032C419.391 44.276 419.822 43.4659 419.822 42.4728C419.822 41.7411 419.613 41.1661 419.195 40.748C418.777 40.3037 418.294 39.964 417.745 39.7288C417.196 39.4936 416.712 39.3237 416.294 39.2192L413.276 38.3568C411.342 37.808 409.944 37.0371 409.082 36.044C408.219 35.0509 407.788 33.9011 407.788 32.5944C407.788 31.3661 408.102 30.2947 408.729 29.38C409.356 28.4653 410.205 27.7597 411.277 27.2632C412.348 26.7667 413.537 26.5184 414.844 26.5184C416.621 26.5184 418.228 26.9888 419.666 27.9296C421.129 28.8443 422.161 30.1248 422.762 31.7712L420.254 32.9472C419.731 31.7712 418.973 30.8565 417.98 30.2032C417.013 29.5237 415.928 29.184 414.726 29.184C413.55 29.184 412.61 29.4845 411.904 30.0856C411.198 30.6867 410.846 31.4445 410.846 32.3592C410.846 33.0648 411.028 33.6267 411.394 34.0448C411.76 34.4629 412.178 34.7765 412.649 34.9856C413.145 35.1947 413.576 35.3515 413.942 35.456L417.431 36.4752C419.13 36.9717 420.45 37.7427 421.39 38.788C422.357 39.8333 422.841 41.0616 422.841 42.4728C422.841 43.6227 422.514 44.6549 421.861 45.5696C421.234 46.4843 420.358 47.2029 419.234 47.7256C418.111 48.2221 416.817 48.4704 415.354 48.4704ZM427.615 48V18.3256H430.555V31.0656L429.888 30.9088C430.411 29.5499 431.26 28.4784 432.436 27.6944C433.639 26.9104 435.024 26.5184 436.592 26.5184C438.081 26.5184 439.414 26.8581 440.59 27.5376C441.792 28.2171 442.733 29.1579 443.412 30.36C444.118 31.536 444.471 32.8688 444.471 34.3584V48H441.531V35.4952C441.531 34.2147 441.296 33.1301 440.825 32.2416C440.355 31.3531 439.702 30.6736 438.865 30.2032C438.055 29.7067 437.127 29.4584 436.082 29.4584C435.037 29.4584 434.096 29.7067 433.26 30.2032C432.423 30.6736 431.757 31.3661 431.26 32.2808C430.79 33.1693 430.555 34.2408 430.555 35.4952V48H427.615ZM460.317 48.4704C458.514 48.4704 456.881 48.0653 455.417 47.2552C453.98 46.4189 452.895 45.2429 452.164 43.7272L452.634 43.296V48H449.694V18.3256H452.634V31.6928L452.164 30.8696C453 29.5368 454.111 28.4784 455.496 27.6944C456.907 26.9104 458.514 26.5184 460.317 26.5184C462.303 26.5184 464.067 27.0019 465.609 27.9688C467.177 28.9096 468.405 30.2032 469.294 31.8496C470.209 33.496 470.666 35.3776 470.666 37.4944C470.666 39.5851 470.209 41.4667 469.294 43.1392C468.405 44.7856 467.177 46.0923 465.609 47.0592C464.067 48 462.303 48.4704 460.317 48.4704ZM460.16 45.5304C461.572 45.5304 462.826 45.1776 463.924 44.472C465.047 43.7664 465.923 42.8125 466.55 41.6104C467.203 40.3821 467.53 39.0101 467.53 37.4944C467.53 35.9525 467.203 34.5805 466.55 33.3784C465.923 32.1763 465.047 31.2224 463.924 30.5168C462.826 29.8112 461.572 29.4584 460.16 29.4584C458.749 29.4584 457.469 29.8112 456.319 30.5168C455.195 31.2224 454.293 32.1893 453.614 33.4176C452.961 34.6197 452.634 35.9787 452.634 37.4944C452.634 39.0101 452.961 40.3821 453.614 41.6104C454.293 42.8125 455.195 43.7664 456.319 44.472C457.469 45.1776 458.749 45.5304 460.16 45.5304ZM485.287 48.4704C483.301 48.4704 481.498 48 479.878 47.0592C478.257 46.0923 476.964 44.7856 475.997 43.1392C475.056 41.4667 474.586 39.572 474.586 37.4552C474.586 35.3645 475.056 33.496 475.997 31.8496C476.938 30.2032 478.205 28.9096 479.799 27.9688C481.42 27.0019 483.249 26.5184 485.287 26.5184C487.326 26.5184 489.142 26.9888 490.736 27.9296C492.356 28.8704 493.624 30.164 494.538 31.8104C495.479 33.4568 495.95 35.3384 495.95 37.4552C495.95 39.5981 495.466 41.5059 494.499 43.1784C493.532 44.8248 492.239 46.1184 490.618 47.0592C489.024 48 487.247 48.4704 485.287 48.4704ZM485.287 45.5304C486.698 45.5304 487.966 45.1776 489.09 44.472C490.24 43.7664 491.141 42.7995 491.794 41.5712C492.474 40.3429 492.814 38.9709 492.814 37.4552C492.814 35.9395 492.474 34.5805 491.794 33.3784C491.141 32.1763 490.24 31.2224 489.09 30.5168C487.966 29.8112 486.698 29.4584 485.287 29.4584C483.876 29.4584 482.596 29.8112 481.446 30.5168C480.322 31.2224 479.42 32.1763 478.741 33.3784C478.061 34.5805 477.722 35.9395 477.722 37.4552C477.722 38.9709 478.061 40.3429 478.741 41.5712C479.42 42.7995 480.322 43.7664 481.446 44.472C482.596 45.1776 483.876 45.5304 485.287 45.5304ZM506.819 48.4704C505.486 48.4704 504.297 48.2221 503.252 47.7256C502.206 47.2029 501.383 46.4973 500.782 45.6088C500.181 44.7203 499.88 43.7011 499.88 42.5512C499.88 41.4536 500.116 40.4605 500.586 39.572C501.056 38.6573 501.788 37.8864 502.781 37.2592C503.774 36.632 505.042 36.1877 506.584 35.9264L514.816 34.5544V37.22L507.289 38.4744C505.773 38.7357 504.676 39.2192 503.996 39.9248C503.343 40.6304 503.016 41.4667 503.016 42.4336C503.016 43.3744 503.382 44.1715 504.114 44.8248C504.872 45.4781 505.839 45.8048 507.015 45.8048C508.452 45.8048 509.707 45.5043 510.778 44.9032C511.849 44.276 512.686 43.4397 513.287 42.3944C513.888 41.3491 514.188 40.1861 514.188 38.9056V33.5744C514.188 32.32 513.731 31.3008 512.816 30.5168C511.902 29.7328 510.713 29.3408 509.249 29.3408C507.969 29.3408 506.845 29.6675 505.878 30.3208C504.911 30.948 504.192 31.7712 503.722 32.7904L501.056 31.34C501.448 30.4515 502.063 29.6413 502.899 28.9096C503.761 28.1779 504.741 27.6029 505.839 27.1848C506.936 26.7405 508.073 26.5184 509.249 26.5184C510.791 26.5184 512.15 26.8189 513.326 27.42C514.528 28.0211 515.456 28.8573 516.109 29.9288C516.789 30.9741 517.128 32.1893 517.128 33.5744V48H514.188V43.8056L514.62 44.2368C514.254 45.0208 513.679 45.7395 512.895 46.3928C512.137 47.02 511.235 47.5296 510.19 47.9216C509.171 48.2875 508.047 48.4704 506.819 48.4704ZM522.784 48V26.9888H525.724V30.4384L525.332 29.9288C525.828 28.9357 526.573 28.1517 527.566 27.5768C528.585 27.0019 529.813 26.7144 531.251 26.7144H532.584V29.6544H530.741C529.225 29.6544 528.01 30.1248 527.096 31.0656C526.181 32.0064 525.724 33.3392 525.724 35.064V48H522.784ZM545.123 48.4704C543.163 48.4704 541.399 48 539.831 47.0592C538.263 46.0923 537.022 44.7856 536.107 43.1392C535.219 41.4667 534.774 39.5851 534.774 37.4944C534.774 35.3776 535.219 33.496 536.107 31.8496C537.022 30.2032 538.25 28.9096 539.792 27.9688C541.36 27.0019 543.137 26.5184 545.123 26.5184C546.927 26.5184 548.534 26.9104 549.945 27.6944C551.356 28.4784 552.467 29.5368 553.277 30.8696L552.807 31.6928V18.3256H555.747V48H552.807V43.296L553.277 43.7272C552.545 45.2429 551.448 46.4189 549.984 47.2552C548.547 48.0653 546.927 48.4704 545.123 48.4704ZM545.28 45.5304C546.691 45.5304 547.959 45.1776 549.083 44.472C550.232 43.7664 551.134 42.8125 551.787 41.6104C552.467 40.3821 552.807 39.0101 552.807 37.4944C552.807 35.9787 552.467 34.6197 551.787 33.4176C551.134 32.1893 550.232 31.2224 549.083 30.5168C547.959 29.8112 546.691 29.4584 545.28 29.4584C543.895 29.4584 542.641 29.8112 541.517 30.5168C540.393 31.2224 539.505 32.1763 538.851 33.3784C538.224 34.5805 537.911 35.9525 537.911 37.4944C537.911 39.0101 538.224 40.3821 538.851 41.6104C539.505 42.8125 540.38 43.7664 541.478 44.472C542.601 45.1776 543.869 45.5304 545.28 45.5304Z" fill="black"/>
<defs>
<clipPath id="clip0_2389_2206">
<rect width="30.7021" height="44.6986" fill="white" transform="translate(16.6674 8)"/>
</clipPath>
</defs>
</svg>
